<svg width="64" height="64" viewBox="0 0 64 64" fill="none" xmlns="http://www.w3.org/2000/svg">
  <rect width="64" height="64" rx="18" fill="#F4F0E8" stroke="#0F172A" stroke-width="2"/>
  <path d="M20 36.5C21.8 40.2 26 42.5 32 42.5C38.8 42.5 43.2 39.6 43.2 35.8C43.2 32.5 40.8 30.7 35.6 29.7L30.7 28.8C27 28 25.6 27 25.6 25.1C25.6 23.1 27.9 21.7 31.2 21.7C34.6 21.7 37.1 22.8 38.7 25.1L43 22.4C40.9 18.7 36.6 16.5 31.4 16.5C25 16.5 20.8 19.4 20.8 23.6C20.8 27 23.1 29.1 28.1 30.1L33.1 31.2C36.7 31.9 38.2 33 38.2 34.9C38.2 37 35.7 38.3 32 38.3C28.1 38.3 25.3 36.8 23.7 34.2L20 36.5Z" fill="#0F172A"/>
  <circle cx="44" cy="20" r="4" fill="#C9A76A"/>
</svg>
