<svg xmlns="http://www.w3.org/2000/svg" width="140" height="72.605" viewBox="0 0 140 72.605"><g transform="translate(-361 -91)"><path d="M97.221,67.819c.065-1.437-.788-2.269-2.368-2.2a3.35,3.35,0,0,0-3.138,2.954c-.052,1.13.593,2.192,2.371,2.117a3.2,3.2,0,0,0,3.134-2.867" transform="translate(318.526 60.614)" fill="#fff"/><path d="M47.2,33.706c-3.927,3.468-7.336,4.339-6.322,1.834,1.185-2.951,5.809-13.223,6.9-15.279a.761.761,0,0,1,.569-.448c1.163-.052,4.98-.033,5.9-.13.871,0,1.556-2.39.895-2.39-1.59.013-7.1.23-8.477.185-.241.013-.3-.122-.008-.321C48.389,16,51.5,14.429,53.1,11.547s.209-6.309-4.2-6.448c-2.667-.08-6.132,1.569-9.494,3.966a7.1,7.1,0,0,0,.423-2.041c.248-3.931-3.124-7.22-8-7.014A15.1,15.1,0,0,0,17.457,13.666c-.176,2.682.917,6.993,5.1,12.408,3.834,4.941,4.515,8.14,4.348,10.7-.389,6.092-5.126,8.382-10.4,8.6-5.553.231-10.253-1.893-12.106-3.594a5.9,5.9,0,0,1-2.328-5.3c.055-.867.42-1.634,1.374-1.658a8.219,8.219,0,0,1,2.436.611,2.351,2.351,0,0,0,2.26-.713,5.263,5.263,0,0,0,1.009-2.712,3.26,3.26,0,0,0-3.5-3.476c-2.8.121-5.366,2.9-5.644,7.351a12.8,12.8,0,0,0,4.029,9.4,13.384,13.384,0,0,0,9.822,3.144c8.644-.367,18.443-7.86,18.951-15.78.311-4.875-3.106-9.216-5.806-12.578-3.39-4.224-4.92-6.836-4.859-9.586a7.959,7.959,0,0,1,8.142-8c6.622,0,6.128,10.155,6.128,10.155a31.513,31.513,0,0,1,6.135-4.312C45.166,7,48.467,6.572,49.9,8.557a2.971,2.971,0,0,1,.1,2.629c-.543,1.693-2.945,4.9-9.805,7.462-1.967.733-1.912,1.03-1.082,1.067h0c.448.045,4.233-.028,4.428-.005.185-.005.3.259.092.641-2.886,6.081-4.672,10.025-4.909,10.581-2.074,4.89-4.326,9.115.411,8.914,1.543-.063,5.526-2.023,9.707-6.319,2.136-2.192.922-2.08-1.643.18" transform="translate(361 91)" fill="#fff"/><path d="M179.008,48.093a11.373,11.373,0,0,0-6.769,2.7,10.207,10.207,0,0,0-3.994,7.041,7.993,7.993,0,0,0,.037,1.56c-5.783,6.05-9.84,8.217-8.41,4.679,1.419-3.517,7.02-15.942,8.323-18.391a.9.9,0,0,1,.676-.537c1.379-.059,6.283-.317,7.382-.425.8-.1,2.343-2.517,1.228-2.517-1.89,0-5.735.239-7.262.3-.293.011-.423-.367-.339-.559.25-.713,2.223-4.657,2.472-5.435.515-1.332-3.492-.941-4.442.519-.468.719-2.435,4.138-3.02,5.15-.106.184-.463.652-.827.667-.254.015-8.831.5-9.85.545-.293.011-.419-.363-.339-.559.25-.711,1.353-2.931,1.606-3.7.627-1.506-3.1-1.334-4.4.845-.246.415-1.635,2.709-1.941,3.2a1.7,1.7,0,0,1-.829.676c-.421.1-4.728.574-5.613.66a1.325,1.325,0,0,0-1.046,1.093c-.01.259.093.532.745.532.537,0,4.424-.1,4.654-.074.218-.005.348.311.111.767-.582,1.23-1.13,2.378-1.63,3.449,0,0,0,0,0,.005-6.295,13.136-19.5,20.127-17.429,15,1.42-3.516,7.619-16.259,8.959-19.827a3.623,3.623,0,0,0,.18-2.384c-1.847-2.925-12.31,4.646-12.159,6.695.071.937,3.823-3.32,6.119-3.168.222-.008.358.308.111.763-3.437,7.243-5.489,11.77-5.77,12.432-.782,1.839-1.579,3.593-2.131,5.131a101.9,101.9,0,0,1-6.931-14.357,1.26,1.26,0,0,1,.3-1.25C126.144,38.54,134.659,32.121,137,31.586c1.371-.313,1.292.528.764,1.313-1,1.473-1.33,2.01-.963,2.857a2.7,2.7,0,0,0,2.6,1.414c4.669-.143,5.378-5.526,1.621-7.052-6.687-2.729-21.711,11.619-32.261,24.9,2.6-5.9,5.03-11.83,7.275-18.08a33.748,33.748,0,0,0,1.459-5.848c.145-1.228-2.763-2.437-3.9-1.988-2.542,1.015-9.566,7.224-12.937,12.819-.737,1.221,2.731,3.234,3.5,2.041,4.85-7.44,8.762-11.307,9.373-11.667-1.685,6.873-12.211,29.484-15.805,36.984-.617,1.277,3.186,2.662,3.69,1.607a127.076,127.076,0,0,1,11.149-16.5c.374-.4.633-.154.689-.037,4.442,9.586,16.413,32.38,33.192,31.675,4.879-.207,11.869-2.579,12.813-6.628a6.234,6.234,0,0,0,.58.611,9.119,9.119,0,0,0,6.473,2.047c5.776-.241,12.769-4.373,13.343-10.735.3-3.315-1.806-6.039-3.636-8.816-2.152-3.255-3.255-5.085-3.041-7.458a6.09,6.09,0,0,1,6.053-5.3c3.139-.13,4.357,1.421,4.265,2.455-.028.33-.374.552-.634.687-.889.465-2.654.595-2.77,1.866a2.308,2.308,0,0,0,2.13,2.5c.959-.039,2.937-1.417,3.192-4.194.19-2.106-1.983-5.139-6.212-4.965M152.269,46.35a.924.924,0,0,1,.679-.541c.714-.026,9.436-.434,10.028-.423.216-.006.347.309.111.767q-.9,1.881-1.668,3.514a.873.873,0,0,0-.048.078c-6.292,13.134-19.5,20.125-17.425,15,1.421-3.518,7.026-15.939,8.323-18.391m22.256,28.176c-.323,3.588-4.175,5.13-6.91,5.245-3.686.154-6.534-.93-7.824-2.616-.617-.731-.9-.944-.827-1.8.135-1.445,1.852-.834,2.853-.789a2.31,2.31,0,0,0,2.506-2.291c.21-2.284-1.028-3.168-2.711-3.1a4.549,4.549,0,0,0-4.172,4.378,7.762,7.762,0,0,0,.176,2.376c-1.908-.941-4.822-.477-5.881,1.834-.686,1.5,2.886,1.467,2.682,3.761-.191,2.078-3.049,2.686-7.013,2.708-6.028.037-13.42-4.122-20.525-13.979,3-.776,9.392-4.787,15.275-12.7-.423.919-.682,1.5-.772,1.708-2.463,5.82-5.144,10.855.493,10.614,2.4-.1,9.615-4.09,16.143-12.871-.384.843-.625,1.389-.708,1.586-2.467,5.822-5.145,10.852.486,10.618,1.579-.07,5.938-2.778,10.712-8.647a24.225,24.225,0,0,0,3.381,6.58c2.189,3.3,2.8,5.6,2.634,7.39" transform="translate(315.769 77.565)" fill="#fff"/></g></svg>